<svg width="331" height="100" viewBox="0 0 331 100" fill="none" xmlns="http://www.w3.org/2000/svg">
<path d="M20 38.9913V61.0823H37.7544V38.9175C29.8636 38.9913 23.8221 39.0159 20 38.9913Z" fill="#43CC81"/>
<path d="M60.8845 67.8227L60.7365 59.3849C60.6132 52.2508 65.0272 47.5521 72.055 47.4537C78.1704 47.3553 82.2885 52.0048 82.4118 59.2619L82.5351 66.7649L100.29 65.8793L100.092 54.6862C99.8456 39.6309 91.7328 30.9962 77.9731 31.2422C70.4768 31.3652 63.9422 34.3664 60.4653 39.3603L59.2077 33.407L42.4889 33.7022L43.1054 68.7329L60.8598 67.8473H60.8845V67.8227Z" fill="white"/>
<path d="M122.656 79.1144L121.62 20L103.865 20.3198L104.901 80L122.656 79.1144Z" fill="white"/>
<path d="M152.269 36.3599H143.342V65.2517H152.269V36.3599Z" fill="white"/>
<path d="M147.745 31.8468C150.532 31.8468 152.794 29.5903 152.794 26.7696C152.794 23.9489 150.532 21.7327 147.745 21.7327C144.958 21.7327 142.655 23.9489 142.655 26.7696C142.655 29.5903 144.917 31.8468 147.745 31.8468Z" fill="#43CC81"/>
<path d="M167.941 53.2034L167.86 48.9724C167.779 45.3861 170.001 43.0489 173.555 42.9683C176.625 42.928 178.685 45.2652 178.766 48.8918L178.846 52.6796L187.773 52.2363L187.692 46.5949C187.571 39.0194 183.491 34.7078 176.584 34.8286C172.828 34.9092 169.556 36.4002 167.779 38.8985L167.133 35.9166L158.731 36.0778L159.054 53.6869L167.981 53.2437L167.941 53.2034Z" fill="white"/>
<path d="M159.014 54.1707V65.2519H167.941V54.1304C163.982 54.1304 160.953 54.1707 159.014 54.1304V54.1707Z" fill="white"/>
<path d="M178.806 54.0093V65.2518H187.733V53.8481C184.582 53.8884 181.593 53.9287 178.806 53.969V54.0093Z" fill="white"/>
<path d="M203.041 51.4709V48.3681C202.92 44.7818 205.141 42.4447 208.696 42.3641C211.766 42.3238 213.826 44.6609 213.906 48.2875V50.9067L222.873 50.4635L222.793 45.9907C222.671 38.4151 218.592 34.1035 211.685 34.2244C207.928 34.305 204.657 35.7959 202.879 38.2942L202.233 35.3124L193.832 35.4736L194.114 51.9141L203.041 51.4709Z" fill="white"/>
<path d="M194.115 53.7676V65.2921H203.041V53.6064C199.971 53.6467 196.982 53.7273 194.115 53.7676Z" fill="white"/>
<path d="M213.906 53.3648V65.252H222.833V53.2036C219.844 53.2439 216.855 53.3245 213.906 53.3648Z" fill="white"/>
<path d="M238.101 49.6978L237.616 20L228.69 20.1612L229.215 50.141L238.101 49.6978Z" fill="white"/>
<path d="M229.215 53.0826V65.2518H238.141V52.8811C235.152 52.9214 232.204 53.002 229.215 53.0423V53.0826Z" fill="white"/>
<path d="M252.278 49.0127C252.278 49.0127 252.278 48.8515 252.278 48.7709C252.198 44.419 254.985 41.5177 259.145 41.4371C263.305 41.3565 266.012 44.0966 266.214 48.3277L275.181 47.8844C274.736 39.1 268.031 33.3377 259.024 33.4989C250.017 33.6601 243.15 39.9059 243.312 49.0127C243.312 49.1739 243.312 49.335 243.312 49.4559L252.278 49.0127Z" fill="white"/>
<path d="M266.092 52.317C265.487 55.7824 262.861 57.9583 259.307 57.9583C255.752 57.9583 253.248 55.863 252.521 52.599C249.532 52.6796 246.503 52.7199 243.433 52.8005C244.362 60.779 250.744 65.9368 259.307 65.9368C267.87 65.9368 274.534 60.4969 275.181 52.1155C272.232 52.1961 269.203 52.2364 266.133 52.317H266.092Z" fill="white"/>
<path d="M287.864 47.2398C287.944 43.2908 290.529 40.5507 294.367 40.5104C298.204 40.4701 300.87 42.8073 301.233 46.595L310.2 46.1518L309.998 33.499L301.597 33.6602L301.193 36.5615C299.577 34.2243 296.427 32.7737 292.509 32.8543C284.43 32.9752 278.816 39.1001 278.856 47.7636L287.864 47.3204V47.2398Z" fill="white"/>
<path d="M301.274 51.6319C300.708 55.0167 298.163 57.1927 294.609 57.1927C291.297 57.1927 288.793 55.057 288.106 51.914C285.238 51.9543 282.168 52.0349 279.018 52.1154C279.745 59.8119 285.117 64.9697 292.67 64.9697C296.427 64.9697 299.698 63.64 301.435 61.5446V65.2921C301.435 69.4022 298.729 71.9408 294.407 71.9408C290.449 71.9408 288.025 70.0469 287.864 66.783H278.816C279.624 75.0033 285.602 79.9999 294.447 79.9999C304.343 79.9999 310.321 73.7541 310.321 63.3982V51.4304C308.019 51.4304 304.949 51.511 301.274 51.5916V51.6319Z" fill="white"/>
</svg>
